<svg xmlns="http://www.w3.org/2000/svg" width="152" height="152" viewBox="0 0 152 152"><defs><style>.a{fill:#fff;}.b{fill:#0e2244;}</style></defs><g transform="translate(0 0.037)"><rect class="a" width="152" height="152" transform="translate(0 -0.037)"/><path class="b" d="M1959.37,211.3c-.007-.516-.017-1.061-.031-1.628-.042-1.7-.119-3.611-.253-5.592-.06-.881-.131-1.776-.216-2.673q-.062-.673-.137-1.346t-.158-1.341c-.113-.89-.242-1.771-.387-2.63a29.544,29.544,0,0,0-2.035-7.3q-.209-.447-.437-.847a6.194,6.194,0,0,0-1.827-2.128,23.051,23.051,0,0,0-7.5-3.069c-.307-.075-.616-.148-.928-.219-.625-.141-1.26-.272-1.9-.4s-1.3-.247-1.965-.367-1.336-.238-2.017-.358l-1.026-.183q-1.032-.186-2.085-.389-.527-.1-1.057-.212a54.852,54.852,0,0,1-7.6-2.075q-.552-.2-1.1-.416a37.607,37.607,0,0,1-4.434-2.08c-.107-.059-.208-.122-.308-.186l-.06-.04a4.918,4.918,0,0,1-.744-.618c0-.019-.009-.038-.014-.057l-.017.027-.03-.029v0a6.438,6.438,0,0,1-1.628-3.922V161.3a30.725,30.725,0,0,0,3.958-4.267c1.966-2.623,3.826-4.907,4.926-8.375a21.448,21.448,0,0,0,.718-3.1c.074.015.15.027.228.035,2.4.262,5.183-2.774,6.209-6.781.948-3.7.066-6.934-1.967-7.614,1.309-2.136,1.96-5.685,1.819-9.054.416.517.814,1.044,1.19,1.582-2.1-16.559-20.377-31.763-32.76-22.481a8.562,8.562,0,0,1,5.145-3.9c-2.663-.32-7.359,1.366-7.614,4.145-3.858-2.8-10.646,1.358-13.186,5.32a24.97,24.97,0,0,1,4.32-1.469c-4.344,2.95-8.568,8.792-9.024,19.918a16.3,16.3,0,0,1,1.417-2.316,36.135,36.135,0,0,0-.478,5.744c0,.82.037,1.631.105,2.431a2.857,2.857,0,0,0-.845-.039c-2.4.262-3.52,3.723-2.5,7.731s3.806,7.043,6.21,6.781q.115-.013.227-.035a21.546,21.546,0,0,0,.719,3.1c1.1,3.468,2.96,5.752,4.927,8.375a30.972,30.972,0,0,0,4.494,4.736v9.469a6.442,6.442,0,0,1-1.629,3.922v0l-.029.029-.018-.027c0,.019-.009.038-.014.057a4.921,4.921,0,0,1-.744.618l-.06.04q-.139.091-.288.175l-.019.012-.006,0c-.326.18-.653.351-.978.519l-.03.015c-.145.075-.292.145-.437.217-.233.116-.466.227-.7.336-.145.067-.289.135-.433.2-.252.115-.5.224-.756.332-.1.044-.2.09-.307.133q-.571.239-1.141.457c-10.194,3.9-20.042,2.989-26.826,7.555a5.009,5.009,0,0,0-1.1,1.046q-.128.16-.251.334a12.8,12.8,0,0,0-1.5,3.03q-.092.255-.179.518-.175.527-.334,1.089t-.3,1.153c-.24.984-.449,2.025-.631,3.1q-.11.644-.206,1.3t-.182,1.327c-.084.668-.161,1.341-.229,2.014q-.068.673-.127,1.345a136.677,136.677,0,0,0-.412,14.408h101.489S1959.412,214.4,1959.37,211.3Z" transform="translate(-1830.808 -81.888)"/></g></svg>