<svg xmlns="http://www.w3.org/2000/svg" width="152" height="152" viewBox="0 0 152 152"><defs><style>.a{fill:#fff;}.b{fill:#0e2244;}</style></defs><g transform="translate(0 -0.241)"><rect class="a" width="152" height="152" transform="translate(0 0.241)"/><path class="b" d="M1618.028,2111.524q-.343-.23-.695-.441c-.077-.046-.155-.088-.233-.134-.16-.091-.32-.185-.482-.272-.094-.05-.188-.1-.283-.145-.15-.077-.3-.154-.455-.227-.1-.048-.2-.093-.3-.14-.15-.069-.3-.139-.457-.2l-.31-.128c-.157-.063-.313-.126-.473-.187-.1-.04-.2-.076-.306-.115-.165-.059-.332-.12-.5-.176l-.293-.1c-.182-.058-.364-.116-.545-.172-.088-.026-.175-.055-.263-.08-.2-.06-.408-.119-.615-.175-.069-.021-.138-.04-.208-.059-.245-.067-.493-.13-.743-.192l-.088-.021c-4.341-1.068-9.271-1.563-14.4-2.958l0-.012v-.042l-.042-.012a41.574,41.574,0,0,1-6.063-2.135l-.023-.009-.024.011-.038.019c-.885-.4-1.771-.832-2.656-1.32a5.806,5.806,0,0,1-2.7-4.654v-9.358a29.81,29.81,0,0,0,4.078-4.347c1.9-2.532,3.693-4.735,4.753-8.082a20.533,20.533,0,0,0,.693-2.988,2.129,2.129,0,0,0,.22.033c2.318.253,5-2.675,5.991-6.543.928-3.626.037-6.791-1.991-7.376q.118-1.4.118-2.828c0-7.865-1.863-18.018-7.135-21.512-4.158-2.757-8.763-3.763-12.631-4.44-3.336-.748-6.583-1.415-8.023-5.318a5.716,5.716,0,0,0,1.036,3.661,18.942,18.942,0,0,1-4.829-3.843,17.861,17.861,0,0,0-9.2,11.765c-7.135.792-7.935,11.823-7.935,19.688,0,.953.042,1.9.12,2.828-2.028.585-2.92,3.75-1.991,7.376.99,3.868,3.672,6.8,5.991,6.543a2.179,2.179,0,0,0,.218-.033,20.661,20.661,0,0,0,.693,2.988c1.062,3.346,2.857,5.55,4.755,8.082a29.807,29.807,0,0,0,4.076,4.347v9.358a5.807,5.807,0,0,1-2.7,4.654c-.887.488-1.772.923-2.658,1.32l-.037-.019-.023-.011-.023.009a41.611,41.611,0,0,1-6.063,2.135l-.042.012,0,.042v.012c-5.13,1.395-10.062,1.89-14.4,2.958l-.087.021c-.25.062-.5.125-.745.192-.07.019-.138.038-.207.059-.207.056-.412.115-.615.175-.088.024-.177.053-.263.08-.184.056-.365.114-.545.172l-.293.1c-.168.057-.335.117-.5.176-.1.039-.207.076-.308.115-.158.06-.317.124-.473.187l-.308.128c-.155.065-.307.135-.458.2-.1.047-.2.092-.3.14-.153.073-.3.15-.455.227-.1.048-.19.095-.284.145-.163.087-.322.181-.481.272-.078.045-.157.088-.235.134q-.352.212-.693.441c-6.1,4.106-5.263,29.589-5.263,29.589h31.643v.012l.009.041h34.618l.008-.041,0-.012h31.641S1624.13,2115.631,1618.028,2111.524Z" transform="translate(-1494.753 -2009.087)"/></g></svg>