<svg xmlns="http://www.w3.org/2000/svg" width="48.501" height="45.5" viewBox="0 0 48.501 45.5"><defs><style>.a{fill:#ff9d00;stroke:#47b45e;stroke-miterlimit:10;stroke-width:0.5px;}.b,.c{fill:#fff;}.b{font-size:28px;font-family:Lora-Bold, Lora;font-weight:700;}</style></defs><g transform="translate(310.005)"><path class="a" d="M-269.363,36.483a22.339,22.339,0,0,0,4.717-13.733A22.527,22.527,0,0,0-287.2.25a22.527,22.527,0,0,0-22.554,22.5A22.527,22.527,0,0,0-287.2,45.25a22.47,22.47,0,0,0,13.129-4.229c3.728,1.4,12.311,1.115,12.317.19A25.517,25.517,0,0,1-269.363,36.483Z"/><text class="b" transform="translate(-293.755 36.25)"><tspan x="0" y="0">4</tspan></text><g transform="translate(-305.008 4.568)"><path class="c" d="M-300.98,18.6l-.4-.533a.627.627,0,0,0,.264-.342.545.545,0,0,0-.064-.358,2.99,2.99,0,0,0-.26-.4l-2.631-3.475c-.074-.1-.156-.212-.244-.339s-.172-.255-.252-.385c-.084.072-.184.155-.3.248s-.2.167-.261.219l-.473-.625a5.313,5.313,0,0,0,.615-.529,2.765,2.765,0,0,0,.335-.41.919.919,0,0,0,.128-.266l.4-.3a1.988,1.988,0,0,1,.176.183c.066.074.121.135.164.18a2.236,2.236,0,0,1,.309-.777,2.092,2.092,0,0,1,.462-.506,1.886,1.886,0,0,1,1.06-.4,2.114,2.114,0,0,1,1.131.28,3.369,3.369,0,0,1,1.043.943,3.336,3.336,0,0,1,.638,1.371,2.514,2.514,0,0,1-.092,1.354,2.42,2.42,0,0,1-.848,1.108,2.1,2.1,0,0,1-.433.256,4.279,4.279,0,0,1-.411.149l.6.789c.057.077.138.185.242.327s.2.28.28.414a3.51,3.51,0,0,1,.274-.238c.1-.082.18-.143.235-.185l.472.625Zm.3-4.283a1.011,1.011,0,0,0,.417-.67,1.507,1.507,0,0,0-.141-.792,4.231,4.231,0,0,0-.491-.817,3.455,3.455,0,0,0-.631-.647,1.585,1.585,0,0,0-.7-.328.82.82,0,0,0-.67.191,1.08,1.08,0,0,0-.3.388,1.061,1.061,0,0,0-.092.477q.194.254.382.5l.377.5q.187.246.375.5l.38.5.382.5a1.283,1.283,0,0,0,.335-.087A1.258,1.258,0,0,0-300.682,14.317Z" transform="translate(305.608 -3.191)"/><path class="c" d="M-296.289,12.568a2.791,2.791,0,0,1-1.356.225,2.356,2.356,0,0,1-1.222-.474,2.724,2.724,0,0,1-.86-1.154,3.046,3.046,0,0,1-.255-1.519,2.612,2.612,0,0,1,.486-1.289,2.475,2.475,0,0,1,1.054-.83,2.738,2.738,0,0,1,1.348-.22,2.328,2.328,0,0,1,1.208.481,2.792,2.792,0,0,1,.863,1.173,3.244,3.244,0,0,1,.28,1.514,2.4,2.4,0,0,1-.454,1.258A2.531,2.531,0,0,1-296.289,12.568Zm-.244-.689a.765.765,0,0,0,.462-.508,1.668,1.668,0,0,0,0-.76,4.33,4.33,0,0,0-.256-.82,5.369,5.369,0,0,0-.35-.69,3.341,3.341,0,0,0-.442-.585,1.369,1.369,0,0,0-.508-.346.707.707,0,0,0-.553.031.812.812,0,0,0-.472.512,1.666,1.666,0,0,0-.034.769,3.776,3.776,0,0,0,.248.84,4.658,4.658,0,0,0,.5.905,2.06,2.06,0,0,0,.658.623A.788.788,0,0,0-296.532,11.879Z" transform="translate(306.419 -3.549)"/><path class="c" d="M-294.366,11.238a.6.6,0,0,0,.379-.2.54.54,0,0,0,.09-.349,2.9,2.9,0,0,0-.064-.476l-.353-1.673c-.025-.121-.052-.261-.078-.421s-.049-.314-.066-.465c-.106.03-.231.061-.375.1s-.252.062-.324.084l-.161-.766a5.38,5.38,0,0,0,.776-.216,2.652,2.652,0,0,0,.483-.228.957.957,0,0,0,.23-.185l.543-.114.743,3.517c.019.094.045.228.073.4s.054.338.073.5a3.577,3.577,0,0,1,.351-.1c.132-.031.229-.054.3-.068l.163.766-2.642.556Zm.146-5.548a.745.745,0,0,1-.615-.122.851.851,0,0,1-.346-.538.832.832,0,0,1,.109-.634.745.745,0,0,1,.493-.356.708.708,0,0,1,.589.128.864.864,0,0,1,.341.538.9.9,0,0,1-.079.627A.685.685,0,0,1-294.219,5.691Z" transform="translate(307.096 -4.023)"/><path class="c" d="M-291.791,10.93l0-.67a.6.6,0,0,0,.411-.116.561.561,0,0,0,.159-.324,3.021,3.021,0,0,0,.034-.48l-.008-1.731c0-.125,0-.263.009-.417s.016-.308.029-.459c-.109.007-.239.013-.387.017s-.259.009-.334.016l0-.783a5.432,5.432,0,0,0,.8-.054,2.7,2.7,0,0,0,.521-.127.947.947,0,0,0,.261-.134l.506,0a1.639,1.639,0,0,1,.021.2,1.012,1.012,0,0,0,.006.119c0,.037.016.1.037.2a2.445,2.445,0,0,1,.472-.294,3.271,3.271,0,0,1,.536-.208,1.744,1.744,0,0,1,.474-.08,1.556,1.556,0,0,1,1.346.536A2.979,2.979,0,0,1-286.5,7.87l0,1.38c0,.1,0,.232-.008.406s-.016.342-.03.5q.175-.021.371-.027c.13,0,.231-.006.3-.006l0,.783-2.7.01,0-.67a.623.623,0,0,0,.417-.114.542.542,0,0,0,.164-.325,2.892,2.892,0,0,0,.033-.48l-.016-1.463a2.009,2.009,0,0,0-.2-.993.68.68,0,0,0-.643-.32,1.208,1.208,0,0,0-.509.114,1.69,1.69,0,0,0-.428.27c0,.1,0,.193,0,.292v.3l.008,1.741c0,.1,0,.231-.009.406s-.015.342-.029.5c.111-.013.231-.022.365-.026s.236-.007.306-.007l0,.784Z" transform="translate(307.592 -3.795)"/><path class="c" d="M-284.578,11.779a2.4,2.4,0,0,1-.562-.2,1.247,1.247,0,0,1-.443-.38,1.324,1.324,0,0,1-.227-.657,3.27,3.27,0,0,1,.1-1.045l.563-2.418-.683-.152.188-.834a1.145,1.145,0,0,0,.651-.077,1.884,1.884,0,0,0,.615-.41,2.016,2.016,0,0,0,.427-.611l.744.166-.326,1.406,1.276.287-.173.773-1.283-.256-.565,2.47a2.306,2.306,0,0,0-.058.468.78.78,0,0,0,.093.411.49.49,0,0,0,.349.231,1.121,1.121,0,0,0,.409-.013,1.388,1.388,0,0,0,.642-.385l.38.561a2.632,2.632,0,0,1-.7.5,2.359,2.359,0,0,1-.629.2,1.945,1.945,0,0,1-.494.015C-284.429,11.8-284.524,11.79-284.578,11.779Z" transform="translate(308.467 -3.882)"/></g></g></svg>